<svg xmlns="http://www.w3.org/2000/svg" xmlns:xlink="http://www.w3.org/1999/xlink" width="140.439" height="137.348" viewBox="0 0 140.439 137.348">
  <defs>
    <linearGradient id="linear-gradient" x1="6.529" y1="-10.301" x2="5.45" y2="-9.69" gradientUnits="objectBoundingBox">
      <stop offset="0.03" stop-color="#ee4036"/>
      <stop offset="0.346" stop-color="#d83031"/>
      <stop offset="0.724" stop-color="#c5222e"/>
      <stop offset="0.984" stop-color="#be1e2d"/>
    </linearGradient>
    <linearGradient id="linear-gradient-2" x1="16.113" y1="11.045" x2="15.638" y2="9.716" gradientUnits="objectBoundingBox">
      <stop offset="0" stop-color="#ee4036"/>
      <stop offset="1" stop-color="#be1e2d"/>
    </linearGradient>
    <linearGradient id="linear-gradient-3" x1="30.146" y1="24.941" x2="29.066" y2="25.552" xlink:href="#linear-gradient"/>
    <linearGradient id="linear-gradient-4" x1="3.74" y1="-3.787" x2="3.265" y2="-5.116" xlink:href="#linear-gradient-2"/>
  </defs>
  <g id="Group_1824" data-name="Group 1824" transform="translate(-110 -251)">
    <g id="Group_1809" data-name="Group 1809" transform="translate(-322.135 -1168.389)">
      <path id="Path_1899" data-name="Path 1899" d="M545.087,1520.758a12.171,12.171,0,0,1-16.042-5.095l.016.064.228.464c11.58,23.6,24.685,34.764,43.682,25.443,0,0,24.86-13.085,11.545-40.222Z" transform="translate(-33.822 -28.627)" fill="url(#linear-gradient)"/>
      <path id="Path_1900" data-name="Path 1900" d="M527.163,1458.736l22.234,45.316c9.671,19.711,32.016,17.786,41.1,13.33L552.773,1440.5c-9.5-19.362-30.142-26.415-49.5-16.915l-19.788,9.709C502.478,1423.973,515.583,1435.134,527.163,1458.736Z" transform="translate(-17.92)" fill="url(#linear-gradient-2)"/>
      <path id="Path_1901" data-name="Path 1901" d="M503.072,1459.864a12.17,12.17,0,0,1,16.042,5.095l-.016-.064-.228-.465c-11.58-23.6-24.685-34.763-43.682-25.443,0,0-24.86,13.085-11.545,40.222Z" transform="translate(-9.628 -5.694)" fill="url(#linear-gradient-3)"/>
      <path id="Path_1902" data-name="Path 1902" d="M495.466,1491.1l-22.234-45.316c-9.671-19.711-32.016-17.786-41.1-13.33l37.721,76.883c9.5,19.362,30.142,26.415,49.5,16.915l19.788-9.709C520.151,1525.861,507.046,1514.7,495.466,1491.1Z" transform="translate(0 -3.533)" fill="url(#linear-gradient-4)"/>
      <path id="Path_1903" data-name="Path 1903" d="M485.31,1601.845v9.424H459.722v-34.232h11.329v24.807Z" transform="translate(-9.628 -55.021)" fill="#1a1a1a"/>
      <path id="Path_1904" data-name="Path 1904" d="M527.33,1601.713c0,8.35-5.908,13.771-15.089,13.771s-15.089-5.42-15.089-13.771,5.909-13.722,15.089-13.722S527.33,1593.362,527.33,1601.713Zm-19.093.146c0,3.125,1.562,5.176,4,5.176s4-2.051,4-5.176-1.563-5.176-4-5.176S508.237,1598.734,508.237,1601.859Z" transform="translate(-22.691 -58.843)" fill="#1a1a1a"/>
      <path id="Path_1905" data-name="Path 1905" d="M569.257,1597.753v17.286H558.464v-2.881c-1.562,2.148-4.1,3.369-7.52,3.369-5.665,0-8.937-3.32-8.937-8.4,0-5.274,3.565-8.057,10.352-8.154h6.1c-.049-1.856-1.465-2.93-4.151-2.93a25.635,25.635,0,0,0-8.106,1.709l-2.442-7.325a39.883,39.883,0,0,1,13.185-2.589C564.667,1587.84,569.257,1591.454,569.257,1597.753Zm-10.793,8.741v-2.442h-3.808c-1.514,0-2.344.732-2.344,2.149a2.186,2.186,0,0,0,2.441,2.344A4.5,4.5,0,0,0,558.464,1606.494Z" transform="translate(-38.346 -58.791)" fill="#1a1a1a"/>
      <path id="Path_1906" data-name="Path 1906" d="M605.272,1601.343c-2.441,0-4,2.051-4,5.176s1.562,5.176,4,5.176c2.393,0,3.956-2.051,3.956-5.176S607.665,1601.343,605.272,1601.343Z" transform="translate(-59.029 -63.503)" fill="none"/>
      <path id="Path_1907" data-name="Path 1907" d="M603.285,1574.69v11.784a9.165,9.165,0,0,0-7.081-3.125c-7.276,0-11.964,5.323-11.964,13.575,0,8.449,4.834,13.917,12.257,13.917a8.656,8.656,0,0,0,6.788-3.077v2.686h10.987v-34.695A34.748,34.748,0,0,1,603.285,1574.69Zm-3.956,27.7c-2.441,0-4-2.051-4-5.176s1.562-5.176,4-5.176c2.393,0,3.956,2.051,3.956,5.176S601.722,1602.393,599.329,1602.393Z" transform="translate(-53.086 -54.201)" fill="#1a1a1a"/>
    </g>
  </g>
</svg>
